<svg width="64" height="64" viewBox="0 0 64 64" fill="none" xmlns="http://www.w3.org/2000/svg">
<path d="M32 60C24.5739 60 17.452 57.05 12.201 51.799C6.94999 46.548 4 39.4261 4 32C4 24.5739 6.94999 17.452 12.201 12.201C17.452 6.94999 24.5739 4 32 4C39.4261 4 46.548 6.94999 51.799 12.201C57.05 17.452 60 24.5739 60 32C60 39.4261 57.05 46.548 51.799 51.799C46.548 57.05 39.4261 60 32 60ZM32 64C40.4869 64 48.6263 60.6286 54.6274 54.6274C60.6286 48.6263 64 40.4869 64 32C64 23.5131 60.6286 15.3737 54.6274 9.37258C48.6263 3.37142 40.4869 0 32 0C23.5131 0 15.3737 3.37142 9.37258 9.37258C3.37142 15.3737 0 23.5131 0 32C0 40.4869 3.37142 48.6263 9.37258 54.6274C15.3737 60.6286 23.5131 64 32 64Z" fill="#07982F"/>
<path d="M43.8804 19.8799C43.8519 19.9075 43.8252 19.9369 43.8004 19.9679L29.9084 37.6679L21.5364 29.2919C20.9677 28.762 20.2155 28.4735 19.4383 28.4872C18.6611 28.5009 17.9195 28.8158 17.3699 29.3654C16.8202 29.9151 16.5054 30.6566 16.4917 31.4338C16.478 32.211 16.7665 32.9632 17.2964 33.5319L27.8804 44.1199C28.1655 44.4045 28.505 44.6288 28.8787 44.7793C29.2524 44.9299 29.6526 45.0036 30.0554 44.9961C30.4582 44.9887 30.8553 44.9002 31.2232 44.7359C31.591 44.5716 31.922 44.3349 32.1964 44.0399L48.1644 24.0799C48.7081 23.5092 49.0054 22.7475 48.9919 21.9594C48.9785 21.1713 48.6554 20.4201 48.0926 19.8683C47.5297 19.3165 46.7723 19.0083 45.9841 19.0105C45.1959 19.0127 44.4402 19.325 43.8804 19.8799Z" fill="#07982F"/>
</svg>
